<svg width="20" height="20" viewBox="0 0 36 36" fill="none" xmlns="http://www.w3.org/2000/svg">
<path d="M35.9763 2.04931C35.7191 2.77065 35.5003 3.50776 35.1978 4.2084C34.716 5.32915 34.0178 6.34381 33.1432 7.19426C31.8119 8.49503 30.5111 9.82635 29.1866 11.136C29.0931 11.2208 29.0194 11.3252 28.9707 11.4417C28.922 11.5581 28.8995 11.6839 28.9048 11.81C28.9127 18.647 28.915 25.4842 28.9117 32.3218C28.9117 32.7002 28.9117 33.0737 28.6161 33.3684C28.0839 33.9005 27.2296 33.7626 26.8955 33.0471C26.6383 32.4992 26.4393 31.9227 26.2195 31.3581C24.6487 27.3355 23.0786 23.313 21.5091 19.2905C21.4727 19.1919 21.4293 19.1052 21.3751 18.981C21.2677 19.0796 21.178 19.1545 21.1012 19.2343C18.3603 21.9738 15.6222 24.7159 12.8866 27.4607C12.7507 27.6089 12.6709 27.7999 12.6609 28.0007C12.6461 30.4367 12.6511 32.8717 12.6511 35.3067C12.6511 35.3885 12.6511 35.4713 12.6511 35.5531C12.6609 35.7797 12.5762 35.9473 12.3446 35.9975C12.113 36.0478 11.9751 35.899 11.8952 35.7019C11.5852 34.9089 11.2761 34.115 10.968 33.3201C10.4516 31.9937 9.93424 30.6673 9.4159 29.3409C9.22374 28.8482 8.90643 28.7684 8.52901 29.1172C8.04713 29.5666 7.39379 29.5804 6.95231 29.1497C6.51084 28.7191 6.50591 28.0756 6.95231 27.5799C7.32579 27.17 7.25386 26.8675 6.73256 26.6605L0.479992 24.1969C0.404113 24.1674 0.300642 24.1585 0.257283 24.0984C0.158739 23.9723 0.0050019 23.8097 0.025696 23.6875C0.0463901 23.5653 0.239545 23.449 0.380462 23.3771C0.479005 23.3298 0.610046 23.3623 0.727312 23.3623C3.20962 23.3623 5.69193 23.3623 8.17326 23.3544C8.36427 23.3542 8.54916 23.2869 8.69554 23.1642C11.4449 20.4326 14.1874 17.6947 16.9229 14.9506C16.9643 14.9092 17.0027 14.8659 17.0727 14.789C16.9308 14.7289 16.8106 14.6737 16.6884 14.6254L3.30621 9.33659C2.96229 9.2006 2.64893 9.0321 2.49619 8.66453C2.20647 7.96881 2.65484 7.27802 3.45698 7.19525C3.5841 7.18243 3.71417 7.19033 3.84327 7.19033C10.6454 7.19033 17.4475 7.19295 24.2496 7.1982C24.3922 7.20369 24.5342 7.17765 24.6655 7.12195C24.7968 7.06625 24.9143 6.98226 25.0094 6.87597C26.3979 5.4668 27.7686 4.04285 29.2083 2.68098C30.648 1.31911 32.341 0.439117 34.3079 0.155312C35.2293 0.0212932 35.5683 0.253847 35.9714 1.07077L35.9763 2.04931Z" fill="grey"/>
</svg>
